<svg height="1006" width="720" xmlns="http://www.w3.org/2000/svg">
<rect height="1006" fill="#555" width="720"></rect>
<text fill="#7f7" font-family="Courier New" font-size="12" xml:space="preserve">
<tspan x="10" y="26">2 megabytes installed</tspan>
<tspan x="10" y="42"></tspan>
<tspan x="10" y="58">node_modules</tspan>
<tspan x="10" y="74">└─┬ ipify@2.0.0 </tspan>
<tspan x="10" y="90">  ├─┬ got@6.7.1 </tspan>
<tspan x="10" y="106">  │ ├─┬ create-error-class@3.0.2 </tspan>
<tspan x="10" y="122">  │ │ └── capture-stack-trace@1.0.0 </tspan>
<tspan x="10" y="138">  │ ├── duplexer3@0.1.4 </tspan>
<tspan x="10" y="154">  │ ├── get-stream@3.0.0 </tspan>
<tspan x="10" y="170">  │ ├── is-redirect@1.0.0 </tspan>
<tspan x="10" y="186">  │ ├── is-retry-allowed@1.1.0 </tspan>
<tspan x="10" y="202">  │ ├── is-stream@1.1.0 </tspan>
<tspan x="10" y="218">  │ ├── lowercase-keys@1.0.0 </tspan>
<tspan x="10" y="234">  │ ├── safe-buffer@5.0.1 </tspan>
<tspan x="10" y="250">  │ ├── timed-out@4.0.1 </tspan>
<tspan x="10" y="266">  │ ├── unzip-response@2.0.1 </tspan>
<tspan x="10" y="282">  │ └─┬ url-parse-lax@1.0.0 </tspan>
<tspan x="10" y="298">  │   └── prepend-http@1.0.4 </tspan>
<tspan x="10" y="314">  └─┬ meow@3.7.0 </tspan>
<tspan x="10" y="330">    ├─┬ camelcase-keys@2.1.0 </tspan>
<tspan x="10" y="346">    │ └── camelcase@2.1.1 </tspan>
<tspan x="10" y="362">    ├── decamelize@1.2.0 </tspan>
<tspan x="10" y="378">    ├─┬ loud-rejection@1.6.0 </tspan>
<tspan x="10" y="394">    │ ├─┬ currently-unhandled@0.4.1 </tspan>
<tspan x="10" y="410">    │ │ └── array-find-index@1.0.2 </tspan>
<tspan x="10" y="426">    │ └── signal-exit@3.0.2 </tspan>
<tspan x="10" y="442">    ├── map-obj@1.0.1 </tspan>
<tspan x="10" y="458">    ├── minimist@1.2.0 </tspan>
<tspan x="10" y="474">    ├─┬ normalize-package-data@2.3.6 </tspan>
<tspan x="10" y="490">    │ ├── hosted-git-info@2.4.2 </tspan>
<tspan x="10" y="506">    │ ├─┬ is-builtin-module@1.0.0 </tspan>
<tspan x="10" y="522">    │ │ └── builtin-modules@1.1.1 </tspan>
<tspan x="10" y="538">    │ ├── semver@5.3.0 </tspan>
<tspan x="10" y="554">    │ └─┬ validate-npm-package-license@3.0.1 </tspan>
<tspan x="10" y="570">    │   ├─┬ spdx-correct@1.0.2 </tspan>
<tspan x="10" y="586">    │   │ └── spdx-license-ids@1.2.2 </tspan>
<tspan x="10" y="602">    │   └── spdx-expression-parse@1.0.4 </tspan>
<tspan x="10" y="618">    ├── object-assign@4.1.1 </tspan>
<tspan x="10" y="634">    ├─┬ read-pkg-up@1.0.1 </tspan>
<tspan x="10" y="650">    │ ├─┬ find-up@1.1.2 </tspan>
<tspan x="10" y="666">    │ │ ├── path-exists@2.1.0 </tspan>
<tspan x="10" y="682">    │ │ └─┬ pinkie-promise@2.0.1 </tspan>
<tspan x="10" y="698">    │ │   └── pinkie@2.0.4 </tspan>
<tspan x="10" y="714">    │ └─┬ read-pkg@1.1.0 </tspan>
<tspan x="10" y="730">    │   ├─┬ load-json-file@1.1.0 </tspan>
<tspan x="10" y="746">    │   │ ├── graceful-fs@4.1.11 </tspan>
<tspan x="10" y="762">    │   │ ├─┬ parse-json@2.2.0 </tspan>
<tspan x="10" y="778">    │   │ │ └─┬ error-ex@1.3.1 </tspan>
<tspan x="10" y="794">    │   │ │   └── is-arrayish@0.2.1 </tspan>
<tspan x="10" y="810">    │   │ ├── pify@2.3.0 </tspan>
<tspan x="10" y="826">    │   │ └─┬ strip-bom@2.0.0 </tspan>
<tspan x="10" y="842">    │   │   └── is-utf8@0.2.1 </tspan>
<tspan x="10" y="858">    │   └── path-type@1.1.0 </tspan>
<tspan x="10" y="874">    ├─┬ redent@1.0.0 </tspan>
<tspan x="10" y="890">    │ ├─┬ indent-string@2.1.0 </tspan>
<tspan x="10" y="906">    │ │ └─┬ repeating@2.0.1 </tspan>
<tspan x="10" y="922">    │ │   └─┬ is-finite@1.0.2 </tspan>
<tspan x="10" y="938">    │ │     └── number-is-nan@1.0.1 </tspan>
<tspan x="10" y="954">    │ └─┬ strip-indent@1.0.1 </tspan>
<tspan x="10" y="970">    │   └── get-stdin@4.0.1 </tspan>
<tspan x="10" y="986">    └── trim-newlines@1.0.0</tspan>
</text>
</svg>
